# xmcd
# Track frame offsets:
# 150
# 14398
# 32610
# 56712
# 72789
# 89650
# 106212
# 124288
# 137509
#
# Disc length: 2060 seconds
# Revision: 0
# Processed by: cddbd v1.5.1PL0 Copyright (c) Steve Scherf et al.
# Submitted via: VisiTrax 2.9.10.228 - For more info visit www.synapsa.com
#
DISCID=78080a09
DTITLE=Various Artist - Monthly Nashville  PHN0303
DYEAR=1900
DGENRE=Karaoke
TTITLE0=Twain, Shania - Up
TTITLE1=Bates, Jeff - Love Song, The
TTITLE2=Dixie Chicks - Travelin' Soldier
TTITLE3=Jackson, Alan - That'd Be Alright
TTITLE4=Tippin, Aaron and Thea - Love Like There's No Tomorrow
TTITLE5=Andrews, Jessica - There's More To Me Than You
TTITLE6=Urban, Keith - Raining On Sunday
TTITLE7=Cochran, Tammy - Love Won't Let Me
TTITLE8=Montgomery Gentry - Speed
EXTD=
EXTT0=
EXTT1=
EXTT2=
EXTT3=
EXTT4=
EXTT5=
EXTT6=
EXTT7=
EXTT8=
PLAYORDER=
